<svg width="24" height="32" viewBox="0 0 24 32" fill="none" xmlns="http://www.w3.org/2000/svg">
<path d="M24 11.8475C24.0002 10.2771 23.6841 8.72237 23.0701 7.2737C22.4561 5.82504 21.5565 4.51134 20.4236 3.40902C19.2907 2.3067 17.947 1.43776 16.4709 0.852739C14.9947 0.267714 13.4154 -0.0217205 11.8249 0.00126966C5.36158 0.0960392 0.0914466 5.30078 0.00121111 11.6816C-0.031128 13.9289 0.584771 16.1389 1.777 18.0536C2.96922 19.9683 4.68858 21.5087 6.73431 22.4948C8.02584 23.1182 9.11417 24.087 9.87548 25.291C10.6368 26.4949 11.0405 27.8857 11.0407 29.305V31.0523C11.0407 31.3036 11.1418 31.5447 11.3218 31.7224C11.5018 31.9002 11.746 32 12.0006 32C12.2552 32 12.4994 31.9002 12.6794 31.7224C12.8594 31.5447 12.9606 31.3036 12.9606 31.0523V29.2642C12.9606 26.369 14.6606 23.7609 17.2919 22.4825C19.3051 21.506 21.0008 19.9919 22.1866 18.1121C23.3723 16.2323 24.0005 14.062 24 11.8475Z" fill="#393939"/>
<path d="M12.1062 19.6084C16.2854 19.6084 19.6734 16.2319 19.6734 12.0667C19.6734 7.90154 16.2854 4.52501 12.1062 4.52501C7.92699 4.52501 4.53906 7.90154 4.53906 12.0667C4.53906 16.2319 7.92699 19.6084 12.1062 19.6084Z" fill="white"/>
</svg>
