<svg width="465" height="148" viewBox="0 0 465 148" fill="none" xmlns="http://www.w3.org/2000/svg">
<rect width="465" height="148" rx="74" fill="url(#paint0_diamond_136_252)"/>
<path d="M189.799 120.122L189.813 120.132L189.827 120.141C196.955 124.72 205.448 126.964 215.215 126.964C225.88 126.964 234.79 124.269 241.778 118.723L241.791 118.713L241.804 118.703C248.761 112.996 252.229 105.328 252.229 95.9036C252.229 88.8781 250.478 83.2374 246.629 79.3581C243.933 76.2743 241.169 73.9038 238.323 72.3237L238.319 72.3215C234.59 70.2623 231.124 68.6269 227.926 67.4284L227.891 67.4154L227.856 67.4037C227.856 67.4038 227.854 67.4029 227.847 67.4005L227.82 67.3911C227.81 67.3876 227.799 67.3837 227.787 67.3792C227.77 67.3732 227.75 67.3662 227.729 67.3582C227.652 67.3304 227.551 67.2932 227.424 67.2459C227.17 67.1514 226.821 67.0203 226.376 66.8521C225.487 66.516 224.224 66.0351 222.584 65.4088L222.53 65.3881L222.475 65.3705L216.543 63.491L216.535 63.4885C208.864 61.0931 203.63 58.762 200.629 56.5569L200.62 56.5508C198.026 54.6657 196.67 51.9354 196.67 48.0482C196.67 43.9803 198.118 40.912 200.983 38.6224C203.917 36.2766 207.875 35.0121 213.045 35.0121C221.479 35.0121 227.61 38.2437 231.75 44.6705C233.829 47.8973 238.241 49.6716 241.973 47.5203L244.459 46.0875C247.492 44.3389 248.952 40.4179 247.06 37.1284C244.039 31.8768 240.008 27.5803 234.982 24.2591C228.641 20.069 221.304 18 213.045 18C203.756 18 195.767 20.7345 189.199 26.2663C182.51 31.7042 179.214 39.2419 179.214 48.6265C179.214 55.7413 181.5 61.8688 186.099 66.8859C187.877 68.8799 190.579 70.7448 194.045 72.5258L194.075 72.5413L194.106 72.5557C197.592 74.2008 200.425 75.4706 202.594 76.3573L202.66 76.3842L202.727 76.4063L212.421 79.5871L212.431 79.5903C221.396 82.4799 227.272 84.9617 230.294 87.0025C233.372 89.1084 234.918 92.0818 234.918 96.1928C234.918 100.4 233.32 103.604 230.082 106.009L230.072 106.017L230.062 106.024C226.879 108.452 222.118 109.807 215.504 109.807C204.276 109.807 196.841 105.837 192.617 98.197C190.667 94.6683 186.025 92.5315 182.061 94.809L179.464 96.3015C176.6 97.9469 175.101 101.541 176.609 104.776C179.564 111.114 183.97 116.239 189.799 120.122ZM338.691 45.8395L338.7 45.8485C345.933 53.0758 349.544 61.9111 349.544 72.4819C349.544 80.6673 347.368 87.7768 343.056 93.888C342.24 95.0452 340.415 95.2562 339.147 93.9899L325.331 80.1835C322.709 77.5633 318.498 77.4416 315.729 79.906L313.938 81.5C310.937 84.1706 310.795 88.8135 313.626 91.663L325.576 103.689C327.073 105.195 326.446 107.22 325.011 107.731C321.143 109.11 316.971 109.807 312.479 109.807C302.105 109.807 293.357 106.207 286.118 98.9757C278.978 91.7473 275.414 82.9572 275.414 72.4819C275.414 62.0084 278.977 53.1664 286.122 45.839C293.361 38.6106 302.107 35.0121 312.479 35.0121C322.855 35.0121 331.551 38.613 338.691 45.8395ZM350.932 33.9106L349.557 35.2871L350.932 33.9106C340.332 23.3185 327.477 18 312.479 18C297.481 18 284.626 23.3185 274.026 33.9106C263.423 44.5055 258.103 57.4012 258.103 72.4819C258.103 87.5627 263.423 100.458 274.026 111.053C284.626 121.645 297.481 126.964 312.479 126.964C321.718 126.964 330.437 124.723 338.606 120.254C339.967 119.509 341.575 119.733 342.55 120.719L347.77 126.001C350.404 128.667 354.67 128.785 357.448 126.269L359.264 124.625C362.231 121.938 362.344 117.314 359.513 114.485L355.527 110.502C354.406 109.382 354.308 107.464 355.426 106.061C363.142 96.3804 367 85.1604 367 72.4819C367 57.488 361.625 44.5951 350.932 33.9106ZM105 19.8795C101.134 19.8795 98 23.0135 98 26.8795V118.084C98 121.95 101.134 125.084 105 125.084H108.456C112.322 125.084 115.456 121.95 115.456 118.084V91.9398C115.456 90.2829 116.799 88.9398 118.456 88.9398H136.75C146.514 88.9398 154.795 85.615 161.458 78.9569C168.117 72.3031 171.449 64.0773 171.449 54.4096C171.449 44.7419 168.117 36.5162 161.458 29.8624C154.795 23.2043 146.514 19.8795 136.75 19.8795H105ZM118.456 72.3614C116.799 72.3614 115.456 71.0183 115.456 69.3614V39.4578C115.456 37.801 116.799 36.4578 118.456 36.4578H136.75C141.845 36.4578 145.946 38.1469 149.208 41.4927C152.471 44.8387 154.138 49.0903 154.138 54.4096C154.138 59.5122 152.485 63.7889 149.182 67.3543C146.03 70.6688 141.948 72.3614 136.75 72.3614H118.456Z" fill="white" stroke="white" stroke-width="4"/>
<defs>
<radialGradient id="paint0_diamond_136_252" cx="0" cy="0" r="1" gradientUnits="userSpaceOnUse" gradientTransform="translate(219.457 77.1632) rotate(-2.1753) scale(346.793 249.406)">
<stop offset="0.01" stop-color="#9EC8FF"/>
<stop offset="0.0101" stop-color="#7EC3FB"/>
<stop offset="0.25" stop-color="#59BEF6"/>
<stop offset="0.510417" stop-color="#0094F0"/>
<stop offset="1" stop-color="#2A73F1"/>
</radialGradient>
</defs>
</svg>
