<svg width="36" height="32" viewBox="0 0 36 32" fill="none" xmlns="http://www.w3.org/2000/svg">
<path fill-rule="evenodd" clip-rule="evenodd" d="M9.29413 18.6314L1.34015 15.5004C0.532317 15.1811 0.525306 13.9782 1.33085 13.6506L33.9742 0.369291C34.6662 0.0869951 35.3804 0.726464 35.2296 1.49293L29.3715 31.212C29.2335 31.9137 28.4534 32.2319 27.9028 31.8098L19.906 25.6866C19.4203 25.3147 18.7583 25.3346 18.2936 25.734L13.8599 29.5461C13.3453 29.9898 12.5698 29.7426 12.3728 29.0738L9.29413 18.6314ZM27.4217 6.86701L11.8767 16.9647C11.2809 17.3526 11.0004 18.1114 11.1928 18.8219L12.8736 25.0505C12.9929 25.4919 13.6004 25.4467 13.6582 24.9906L14.0952 21.5749C14.1776 20.9318 14.4686 20.3393 14.9195 19.8966L27.7486 7.31918C27.9885 7.08446 27.7011 6.68604 27.4217 6.86701Z" fill="#393939"/>
<path d="M11.8768 16.9647L27.4218 6.86705C27.7012 6.68608 27.9886 7.0845 27.7488 7.31922L14.9196 19.8966C14.4687 20.3393 14.1778 20.9318 14.0954 21.5749L13.6583 24.9906C13.6005 25.4467 12.993 25.4919 12.8737 25.0506L11.193 18.8219C11.0005 18.1114 11.281 17.3526 11.8768 16.9647Z" fill="#EAEAEA"/>
</svg>
