<svg width="36" height="21" viewBox="0 0 36 21" fill="none" xmlns="http://www.w3.org/2000/svg">
<path d="M30.9831 13.3528C32.1773 14.5546 33.4377 15.6853 34.5087 17.0083C34.9819 17.5962 35.4298 18.2029 35.7724 18.8851C36.258 19.855 35.8182 20.9223 34.9745 20.9803L29.7299 20.9778C28.3773 21.0935 27.2982 20.5322 26.3909 19.5789C25.6647 18.8165 24.9923 18.0051 24.2941 17.217C24.0079 16.8949 23.7083 16.5918 23.3503 16.3522C22.6344 15.8731 22.0129 16.0198 21.6038 16.7895C21.1871 17.5724 21.0926 18.4393 21.0517 19.3117C20.9955 20.5847 20.6222 20.9194 19.3817 20.9777C16.7305 21.1066 14.2144 20.6931 11.8771 19.3145C9.81639 18.0992 8.21841 16.3835 6.82755 14.4412C4.1195 10.659 2.04568 6.503 0.181812 2.23058C-0.237731 1.268 0.0690904 0.751289 1.09944 0.733001C2.81037 0.69874 4.52107 0.701179 6.23401 0.730562C6.92939 0.741048 7.38974 1.15217 7.65824 1.82933C8.5839 4.1755 9.71656 6.40766 11.1383 8.47669C11.5169 9.02754 11.903 9.57839 12.4528 9.9661C13.061 10.3954 13.524 10.2531 13.8101 9.55474C13.9917 9.11191 14.0712 8.63495 14.1121 8.16067C14.2477 6.52897 14.2655 4.90008 14.0278 3.27412C13.8818 2.25935 13.3273 1.60243 12.345 1.4104C11.8437 1.3125 11.9184 1.12023 12.1611 0.825296C12.5826 0.316634 12.9791 0 13.7695 0H19.6966C20.6298 0.189834 20.837 0.621929 20.9647 1.58975L20.9698 8.37635C20.9596 8.75102 21.1514 9.86283 21.8061 10.1108C22.33 10.2874 22.6754 9.85528 22.9898 9.51279C24.409 7.96023 25.4218 6.12541 26.3266 4.22548C26.7282 3.39007 27.0735 2.52246 27.4081 1.65559C27.656 1.01233 28.045 0.695814 28.748 0.709835L34.4525 0.715078C34.6217 0.715078 34.7928 0.717638 34.9567 0.746534C35.9179 0.915397 36.1813 1.34164 35.8845 2.30922C35.4167 3.82728 34.5065 5.09236 33.6165 6.36328C32.6652 7.72016 31.6478 9.03059 30.7043 10.3955C29.8376 11.6419 29.9064 12.2702 30.9831 13.3528Z" fill="#393939"/>
</svg>
