<svg width="36" height="28" viewBox="0 0 36 28" fill="none" xmlns="http://www.w3.org/2000/svg">
<path fill-rule="evenodd" clip-rule="evenodd" d="M34.2 2.1C35.2551 3.30906 35.6276 6.04545 35.6276 6.04545C35.6276 6.04545 36 9.29092 36 12.5363V15.5273C36 18.7091 35.6276 21.9546 35.6276 21.9546C35.6276 21.9546 35.2552 24.6909 34.2 25.9C32.9014 27.3524 31.4344 27.4812 30.7065 27.545C30.669 27.5483 30.6335 27.5514 30.6 27.5546C25.5724 28 18 28 18 28C18 28 8.62755 27.9363 5.77245 27.6183C5.62073 27.5824 5.4339 27.5555 5.22145 27.5249C4.30401 27.3928 2.90878 27.1919 1.8 25.9001C0.744891 24.691 0.372445 21.9546 0.372445 21.9546C0.372445 21.9546 0 18.7728 0 15.5273V12.5364C0 9.29092 0.372445 6.04545 0.372445 6.04545C0.372445 6.04545 0.682734 3.30913 1.8 2.1C3.09862 0.647583 4.56563 0.518839 5.29349 0.454962C5.331 0.451671 5.36654 0.448551 5.4 0.445432C10.4276 0.0636537 18 0 18 0C18 0 25.5724 0.0636537 30.6 0.445432C30.6518 0.450265 30.7087 0.454731 30.7701 0.459555C31.5173 0.518258 32.9381 0.629882 34.2 2.1ZM13.6552 21.3818V7.5727L25.4483 14.6364L13.6552 21.3818Z" fill="#393939"/>
</svg>
